<svg xmlns="http://www.w3.org/2000/svg" viewBox="0 0 500 500"><!--Staying in--><g id="freepik--Floor--inject-1--inject-42"><ellipse id="freepik--floor--inject-1--inject-42" cx="250" cy="339.42" rx="239.76" ry="138.42" style="fill:#f5f5f5"></ellipse></g><g id="freepik--Shadows--inject-1--inject-42"><path id="freepik--Shadow--inject-1--inject-42" d="M309.38,436.31,479.8,338c2.33-1.35,2.33-3.54,0-4.88L238.35,193.73a9.32,9.32,0,0,0-8.45,0L59.48,292c-2.33,1.35-2.33,3.53,0,4.88L300.92,436.31A9.34,9.34,0,0,0,309.38,436.31Z" style="fill:#e0e0e0"></path><path id="freepik--shadow--inject-1--inject-42" d="M114.88,327.72,71.42,302.57a4.67,4.67,0,0,0-4.23,0L17.58,331.21a1.29,1.29,0,0,0,0,2.44L61.05,358.8a4.62,4.62,0,0,0,4.22,0l49.61-28.64A1.29,1.29,0,0,0,114.88,327.72Z" style="fill:#e0e0e0"></path><path id="freepik--shadow--inject-1--inject-42" d="M135,437.89,51.1,389.47a1.11,1.11,0,0,1,0-2.1l65.45-37.79a4,4,0,0,1,3.64,0L204.07,398a1.11,1.11,0,0,1,0,2.1l-65.46,37.79A4,4,0,0,1,135,437.89Z" style="fill:#e0e0e0"></path></g><g id="freepik--Bed--inject-1--inject-42"><g id="freepik--bed--inject-1--inject-42"><path d="M87.56,305.21l-15.69-9A6.31,6.31,0,0,1,69,291.22V206a6.31,6.31,0,0,1,2.85-4.94l158.79-91.65a6.29,6.29,0,0,1,5.7,0L252,118.5a6.29,6.29,0,0,1,2.85,4.93v85.2a6.29,6.29,0,0,1-2.85,4.93L93.26,305.21A6.29,6.29,0,0,1,87.56,305.21Z" style="fill:#455a64"></path><path d="M254.89,123.43v85.2a6.27,6.27,0,0,1-2.85,4.93L93.26,305.21c-1.58.91-2.85.17-2.85-1.64v-85.2a6.25,6.25,0,0,1,2.85-4.93L252,121.79C253.62,120.88,254.89,121.62,254.89,123.43Z" style="fill:#37474f"></path><path d="M92.6,305.51a6.38,6.38,0,0,1-5-.3l-15.69-9.06A6.28,6.28,0,0,1,69,291.22V206a5.83,5.83,0,0,1,.83-2.8l21.39,12.34a5.9,5.9,0,0,0-.83,2.81v85.19C90.41,305.12,91.35,305.88,92.6,305.51Z" style="fill:#263238"></path><path d="M318.88,395.55l-13.19-7.61a3.12,3.12,0,0,0-2.85,0l-13.19,7.61a3,3,0,0,0-1,1.06h0c-.05.09-.08.18-.12.27a2.89,2.89,0,0,0-.3,1.14v21.4h0a3.16,3.16,0,0,0,1.32,2.38.87.87,0,0,0,.11.09l13.19,7.61h0l.17.07a2.62,2.62,0,0,0,.49.19,3.27,3.27,0,0,0,.76.08,2.91,2.91,0,0,0,1.43-.34l13.19-7.61a3.17,3.17,0,0,0,1.42-2.47V398A3.13,3.13,0,0,0,318.88,395.55Z" style="fill:#455a64"></path><path d="M305.69,429.5l13.19-7.61a3.17,3.17,0,0,0,1.42-2.47V398c0-.91-.63-1.28-1.42-.83l-13.19,7.62a3.17,3.17,0,0,0-1.43,2.47v21.4C304.26,429.59,304.9,430,305.69,429.5Z" style="fill:#37474f"></path><path d="M462,313l-13.19-7.62a3.18,3.18,0,0,0-2.85,0L432.75,313a2.79,2.79,0,0,0-1,1.06h0c-.05.09-.08.18-.12.27a2.89,2.89,0,0,0-.3,1.13v21.41h0a3.17,3.17,0,0,0,1.32,2.38l.11.09,13.19,7.61h0l.17.07a3.56,3.56,0,0,0,.49.19,3.84,3.84,0,0,0,.76.08,2.91,2.91,0,0,0,1.43-.34L462,339.3a3.17,3.17,0,0,0,1.42-2.47V315.42A3.16,3.16,0,0,0,462,313Z" style="fill:#455a64"></path><path d="M448.79,346.91,462,339.3a3.17,3.17,0,0,0,1.42-2.47V315.42c0-.9-.64-1.27-1.42-.82l-13.19,7.62a3.12,3.12,0,0,0-1.43,2.46v21.41C447.36,347,448,347.37,448.79,346.91Z" style="fill:#37474f"></path><path d="M249.19,184.29,96.11,272.65a12.6,12.6,0,0,0-5.7,9.87v5.41a12.6,12.6,0,0,0,5.7,9.87L298.56,414.69a12.58,12.58,0,0,0,11.4,0l153.09-88.36a12.6,12.6,0,0,0,5.7-9.87v-5.41a12.58,12.58,0,0,0-5.7-9.87L260.59,184.29A12.58,12.58,0,0,0,249.19,184.29Z" style="fill:#455a64"></path><path d="M468.75,311.06v5.4a12.57,12.57,0,0,1-5.7,9.87L310,414.69a11.62,11.62,0,0,1-5.69,1.36V397.48a11.62,11.62,0,0,0,5.69-1.36l153.09-88.35c2.93-1.72,3.13-4.39.58-6.22A12.73,12.73,0,0,1,468.75,311.06Z" style="fill:#263238"></path><path d="M96.11,279.23c-3-1.72-3.14-4.46-.44-6.28a12.67,12.67,0,0,0-5.26,9.57v5.41a12.6,12.6,0,0,0,5.7,9.87L298.56,414.69a11.67,11.67,0,0,0,5.71,1.36V397.48a11.63,11.63,0,0,1-5.7-1.36Z" style="fill:#37474f"></path><path d="M249.19,153.47,96.11,241.83a12.6,12.6,0,0,0-5.7,9.87v11.54a12.6,12.6,0,0,0,5.7,9.87L298.56,390a12.65,12.65,0,0,0,11.4,0l153.09-88.36a12.6,12.6,0,0,0,5.7-9.87V280.23a12.6,12.6,0,0,0-5.7-9.87L260.59,153.47A12.65,12.65,0,0,0,249.19,153.47Z" style="fill:#A8D0E6"></path><path d="M96.11,248.41,298.56,365.3a12.58,12.58,0,0,0,11.4,0l153.09-88.36c3.15-1.81,3.15-4.76,0-6.58L260.59,153.47a12.65,12.65,0,0,0-11.4,0L96.11,241.83C93,243.65,93,246.6,96.11,248.41Z" style="fill:#fff;opacity:0.8"></path><path d="M468.75,280.24v11.53a12.6,12.6,0,0,1-5.7,9.87L310,390a11.62,11.62,0,0,1-5.69,1.35V366.66a11.73,11.73,0,0,0,5.69-1.35L463.05,277c2.93-1.71,3.13-4.38.58-6.21A12.73,12.73,0,0,1,468.75,280.24Z" style="fill:#fff;opacity:0.5"></path><path d="M96.11,248.42c-3-1.73-3.14-4.47-.44-6.29a12.67,12.67,0,0,0-5.26,9.57v11.54a12.6,12.6,0,0,0,5.7,9.87L298.56,390a11.78,11.78,0,0,0,5.71,1.36v-24.7a11.74,11.74,0,0,1-5.7-1.35Z" style="fill:#fff;opacity:0.6000000000000001"></path><path d="M123,263.91v43.21L304.27,411.81V366.66a11.69,11.69,0,0,1-5.71-1.36Z" style="fill:#A8D0E6"></path><path d="M123,263.91v43.21L304.27,411.81V366.66a11.69,11.69,0,0,1-5.71-1.36Z" style="opacity:0.30000000000000004"></path><path d="M463.05,277c2.93-1.71,3.13-4.38.58-6.21a12.73,12.73,0,0,1,5.12,9.5v36.63L304.27,411.81V366.66a11.74,11.74,0,0,0,5.69-1.35Z" style="fill:#A8D0E6"></path><path d="M463.05,277c2.93-1.71,3.13-4.38.58-6.21a12.73,12.73,0,0,1,5.12,9.5v36.63L304.27,411.81V366.66a11.74,11.74,0,0,0,5.69-1.35Z" style="opacity:0.45"></path><path d="M463.05,270.36,287.43,169,123,263.91,298.56,365.3a12.58,12.58,0,0,0,11.4,0l153.09-88.36C466.2,275.13,466.2,272.18,463.05,270.36Z" style="fill:#A8D0E6"></path><path d="M463.05,270.36,287.43,169,123,263.91,298.56,365.3a12.58,12.58,0,0,0,11.4,0l153.09-88.36C466.2,275.13,466.2,272.18,463.05,270.36Z" style="opacity:0.2"></path><polygon points="144.34 276.26 144.34 319.56 147.01 321.02 147.01 277.8 144.34 276.26" style="opacity:0.2"></polygon><polygon points="144.34 276.26 308.83 181.31 311.62 182.94 147.01 277.8 144.34 276.26" style="opacity:0.1"></polygon><path d="M287.35,179.52c1.85-6.77-.87-10.31-4.62-16.6s-12.4-18.45-16-23.65-7.51-10.33-9.65-11.05-3.56-1.57-9.19.46-17.33,9-31.8,17S182.37,165,181.47,172.77c-.55,4.83,24.94,47.37,31.14,48,13.78,1.42,28.31-8.87,36-13.5,12.8-7.72,22-13.42,30.83-19.43C283.44,185.12,286.5,182.65,287.35,179.52Z" style="fill:#f0f0f0"></path><path d="M188.18,189.83c3.37,5.48,13.2,20.32,16.61,24.72s9.34,9.38,10.72,3.75S211.61,205.55,208,200s-13.6-18.77-16.84-23.07-8.66-8.51-9.93-3.47S184.8,184.35,188.18,189.83Z" style="fill:#e0e0e0"></path><path d="M210.12,224.59c1.85-6.77-.88-10.3-4.62-16.59s-12.4-18.45-16-23.65S182,174,179.9,173.3s-3.56-1.57-9.19.46-17.33,9-31.8,17S105.14,210,104.24,217.85c-.55,4.83,24.94,47.37,31.14,48,13.78,1.41,28.31-8.87,36-13.5,12.8-7.72,22-13.42,30.83-19.43C206.21,230.2,209.26,227.73,210.12,224.59Z" style="fill:#f0f0f0"></path><path d="M110.94,234.91c3.38,5.47,13.2,20.32,16.61,24.72s9.35,9.37,10.73,3.75-3.9-12.75-7.48-18.33S117.2,226.28,114,222s-8.66-8.51-9.93-3.47S107.57,229.43,110.94,234.91Z" style="fill:#e0e0e0"></path></g><g id="freepik--shadow--inject-1--inject-42"><path id="freepik--shadow--inject-1--inject-42" d="M145.83,217.9l-4.74,22.81c-.83,4-1.35,8.86,1.83,11.38,4.35,3.45,11.7-.74,16,2.78,1.81,1.48,2.46,3.91,3.27,6.1,3.75,10.1,12.68,17.53,22.42,22.12s20.4,6.75,30.83,9.42c4.36,1.12,8.75,2.35,12.63,4.62,5.24,3.06,9.26,7.81,14.14,11.43,6.6,4.9,14.49,7.56,21.52,11.73,1.31.77,2.32,1.94,3.63,2.66,1.74.95,3.65,1.56,5.39,2.54a41.19,41.19,0,0,1,9.64,7.42,28.52,28.52,0,0,0,3.58,3.46,10.66,10.66,0,0,0,5.62,2c3.45.19,7.22-1.77,8.11-5.11a7.85,7.85,0,0,0-2.3-7.25c-1.76-1.81-4-2.44-6-3.81a36.58,36.58,0,0,0-5.8-3.28,58.79,58.79,0,0,1-14-8.64c-4.46-3.82-8.12-8.48-12.08-12.83a120.86,120.86,0,0,0-23.2-19.79c4.36-.85,8.78,1.13,12.46,3.61s7,5.56,11.08,7.35c5,2.19,11.08,2.49,14.85,6.42,1.24,1.28,2.13,2.88,3.44,4.07,3.31,3,8.32,2.79,12.77,2.4,1.08-.1,2.51-.58,2.39-1.66a2,2,0,0,0-.46-.92c-10.36-14.22-25.12-24.58-40.2-33.66s-30.83-17.21-44.54-28.22c-13.06-10.49-23.94-23.42-37.18-33.67-4.43-3.43-10.66-8.62-16.35-5S147.1,211.82,145.83,217.9Z" style="fill:#263238;opacity:0.2"></path><path id="freepik--shadow--inject-1--inject-42" d="M224.39,226.22c2.66,5.26,6,10.33,10.58,14s10.72,5.78,16.49,4.59a3.55,3.55,0,0,0,1.52-.6c1.72-1.35.26-4.11-1.41-5.53-3.12-2.66-13-7.84-11-13.2,2.79.16,5.93,1.61,8.61,2.45,3.09,1,6.15,2,9.21,3.08q9.15,3.23,18.07,7.07A47.34,47.34,0,0,1,288,244.52c2.81,2.33,5.1,5.22,7.86,7.62,6.47,5.6,15,8.05,22.39,12.45a6.34,6.34,0,0,1,2.79,2.65c.54,1.28.25,2.74.39,4.12a8.73,8.73,0,0,0,4.12,6.11,25.9,25.9,0,0,0,7,2.88L348.13,285c2,.61,4.19,1.22,6.27.77s4-2.4,3.63-4.5a6.15,6.15,0,0,0-2.4-3.33c-7.82-6.71-16.66-12.07-24.52-18.76a108.54,108.54,0,0,1-10.95-10.6q-2.52-2.83-4.79-5.89c-.84-1.14-2.84-5.56-4-6,8.55,3.28,16.79,9,24.56,13.77a18.57,18.57,0,0,1,4.33,3.33c2.54,2.88,3.28,7.15,6.23,9.6a15.38,15.38,0,0,0,4.77,2.39c8,2.89,15.9,6.66,24.59,6.12,1.08-.06,2.31-.28,2.85-1.22.84-1.42-.57-3.09-1.88-4.1-7-5.44-14.83-9.8-21.8-15.31-8.13-6.44-15-14.36-21.14-22.71-4.44-6-8.64-12.36-14.57-16.88A66.24,66.24,0,0,0,307.67,205c-11-5.3-22.11-10.65-34-13.16-5.28-1.11-10.8-1.69-15.56-4.24-5.63-3-9.51-8.41-14.15-12.8s-11.1-8-17.21-6.13C207.52,174.61,218.52,214.6,224.39,226.22Z" style="fill:#263238;opacity:0.2"></path><path id="freepik--shadow--inject-1--inject-42" d="M336.91,317.42c-1.72-1.94-3.35-5.11-2.81-7.79A34.69,34.69,0,0,0,352.31,313c6-.36,11.93-2.46,17.42-5a6.85,6.85,0,0,0,3-2.12c.5-.75.7-1.68,1.23-2.41a13.15,13.15,0,0,1,1.86-1.71,2.61,2.61,0,0,0,1-2.2q5.58,1.08,11.09,2.51a8.06,8.06,0,0,1,4.29,2.72c1,1,2.75,2.54,4.16,1.39a2.34,2.34,0,0,0,3.2-.69,6.11,6.11,0,0,1,.68-1.2c.24-.24.58-.4.71-.71.2-.49-.22-1-.61-1.35a63.15,63.15,0,0,0-11.65-7.62c3.06-1.29,4.89-5.38,4.59-8.6a11.83,11.83,0,0,0-5.58-8.42,23.52,23.52,0,0,0-9.87-3.18,41.7,41.7,0,0,0-19.11,1.86,32.84,32.84,0,0,0-15.47,11.19c-1.43,1.93-2.62,4-3.95,6-1.86,2.81-4.19,5.21-6.16,7.92-3.17,4.37-5.17,9.63-2.59,14.75a13.21,13.21,0,0,0,11.95,6.88c.05-.36.1-.73.16-1.09A28.92,28.92,0,0,1,336.91,317.42Z" style="fill:#263238;opacity:0.2"></path></g></g><g id="freepik--night-table--inject-1--inject-42"><g id="freepik--Nightstand--inject-1--inject-42"><polygon points="104.78 332.32 97.28 327.99 104.78 325.82 104.78 332.32" style="fill:#A8D0E6"></polygon><polygon points="104.78 332.32 97.28 327.99 104.78 325.82 104.78 332.32" style="opacity:0.6000000000000001"></polygon><polygon points="67.19 347.52 67.19 354.43 23.93 329.4 23.93 322.49 67.19 347.52" style="fill:#A8D0E6"></polygon><polygon points="67.19 347.52 67.19 354.43 23.93 329.4 23.93 322.49 67.19 347.52" style="opacity:0.6000000000000001"></polygon><polygon points="20.18 268.33 63.44 293.37 63.44 349.69 20.18 324.66 20.18 268.33" style="fill:#A8D0E6"></polygon><polygon points="20.18 268.33 63.44 293.37 63.44 349.69 20.18 324.66 20.18 268.33" style="opacity:0.55"></polygon><polygon points="63.44 293.37 112.28 265.17 112.28 321.49 63.44 349.69 63.44 293.37" style="fill:#A8D0E6"></polygon><polygon points="63.44 293.37 112.28 265.17 112.28 321.49 63.44 349.69 63.44 293.37" style="opacity:0.45"></polygon><polygon points="112.28 265.17 69.02 240.13 20.18 268.33 63.44 293.37 112.28 265.17" style="fill:#A8D0E6"></polygon><polygon points="112.28 265.17 69.02 240.13 20.18 268.33 63.44 293.37 112.28 265.17" style="opacity:0.30000000000000004"></polygon><polygon points="67.19 295.53 108.53 271.67 108.53 284.66 67.19 308.53 67.19 295.53" style="fill:#A8D0E6"></polygon><polygon points="67.19 295.53 108.53 271.67 108.53 284.66 67.19 308.53 67.19 295.53" style="opacity:0.2"></polygon><polygon points="67.19 312.87 108.53 289 108.53 319.32 67.19 343.19 67.19 312.87" style="opacity:0.2"></polygon><polygon points="67.19 354.43 70.95 352.27 70.95 345.36 67.19 347.52 67.19 354.43" style="fill:#A8D0E6"></polygon><polygon points="67.19 354.43 70.95 352.27 70.95 345.36 67.19 347.52 67.19 354.43" style="opacity:0.55"></polygon><polygon points="104.78 332.32 108.53 330.15 108.53 323.66 104.78 325.82 104.78 332.32" style="fill:#A8D0E6"></polygon><polygon points="104.78 332.32 108.53 330.15 108.53 323.66 104.78 325.82 104.78 332.32" style="opacity:0.55"></polygon><path d="M80,290.87c0,.6,1.79.05,4-1.22l7-4c2.21-1.27,4-2.79,4-3.39v-1.08l-15,8.66Z" style="fill:#37474f"></path><polygon points="108.53 319.32 82.45 304.06 67.19 312.87 67.19 343.19 108.53 319.32" style="opacity:0.2"></polygon></g><g id="freepik--Lamp--inject-1--inject-42"><path d="M51.94,269.13a3.52,3.52,0,0,0-.07-.79,11.83,11.83,0,0,0-4.81-7.17H37a11.79,11.79,0,0,0-4.8,7.17,3,3,0,0,0-.08.79c0,.05,0,.14,0,.14.09,1.38,1,2.76,2.89,3.82a15.47,15.47,0,0,0,14,0c1.84-1.06,2.79-2.44,2.88-3.82A.45.45,0,0,0,51.94,269.13Z" style="fill:#263238"></path><path d="M37.27,261c-2.63,1.52-2.63,4,0,5.5a10.53,10.53,0,0,0,9.53,0c2.63-1.51,2.63-4,0-5.5A10.53,10.53,0,0,0,37.27,261Z" style="fill:#37474f"></path><path d="M43.41,227.48H40.67v35.23h0a.65.65,0,0,0,.39.63,2.14,2.14,0,0,0,1.94,0,.66.66,0,0,0,.39-.63h0Z" style="fill:#455a64"></path><path d="M61.58,226.3h0l-9.21-23.47H31.69L22.48,226.3h0c-1.31,3.67.49,7.64,5.43,10.49,7.8,4.5,20.44,4.5,28.24,0C61.09,233.94,62.89,230,61.58,226.3Z" style="fill:#A8D0E6"></path><path d="M34.55,208.45a16.54,16.54,0,0,0,15,0c4.13-2.39,4.13-6.26,0-8.65a16.54,16.54,0,0,0-15,0C30.41,202.19,30.41,206.06,34.55,208.45Z" style="fill:#A8D0E6"></path><path d="M34.55,208.45a16.54,16.54,0,0,0,15,0c4.13-2.39,4.13-6.26,0-8.65a16.54,16.54,0,0,0-15,0C30.41,202.19,30.41,206.06,34.55,208.45Z" style="fill:#fff;opacity:0.6000000000000001"></path><path d="M42,208.74a13.2,13.2,0,0,1-6.49-1.54c-1.52-.87-2.35-2-2.35-3.07s.83-2.21,2.35-3.08A13.2,13.2,0,0,1,42,199.51a13.16,13.16,0,0,1,6.48,1.54c1.52.87,2.35,2,2.35,3.08s-.83,2.2-2.35,3.07A13.16,13.16,0,0,1,42,208.74Z" style="fill:#A8D0E6"></path></g></g><g id="freepik--character-2--inject-1--inject-42"><g id="freepik--Character--inject-1--inject-42"><path d="M373.55,261.53c-7.82-3.74-13.74-10.06-18.79-16.71-3.65-6.06-21.22-35.3-24.32-39.43-3.69-4.91-24.1-11.77-34.07-14.9-3.32-1-21-4.94-21-4.94l-18.62-3.62c0,6.43-.1,11.43,3.2,17.33s9.77,9.34,19.43,12.72c8,2.79,29.92,4.67,32.25,5.2s4.53,0,6,4,1.43,5.9,6.45,10.46c6.45,5.86,17.35,12.76,21.77,19.44a12.24,12.24,0,0,1,1,5c-.14,6.58,5.47,5.81,9.63,9.07,2.26,1.77,3.87,3.82,6.72,4.74a18.31,18.31,0,0,0,8,.6c2.42-.34,6-1.73,7.34-3.92C380.3,263.66,376.17,262.78,373.55,261.53Z" style="fill:#ffa8a7"></path><path d="M318.68,218.27c-1.14-5.15-8.31-6.56-14.23-8.9-5-2-30.18-10.66-30.18-10.66a31.45,31.45,0,0,0,1-10l-17.68,4.81a23.37,23.37,0,0,0,2.3,5.72c3.29,5.9,9.77,9.34,19.43,12.72,8,2.79,29.92,4.67,32.25,5.2s4.53,0,6,4,1.43,5.9,6.45,10.46C319.49,226.61,319.33,221.23,318.68,218.27Z" style="fill:#f28f8f"></path><path d="M289.47,215s.4-12.1,6.17-17.92c3.77-3.8,6.9-4.61,6.9-4.61s-2.77-1.35-13.59-4c-9.27-2.29-32.55-7-32.55-7s-3.92,15.79,9.61,25.23S289.47,215,289.47,215Z" style="fill:#A8D0E6"></path><path d="M289.47,215s.4-12.1,6.17-17.92c3.77-3.8,6.9-4.61,6.9-4.61s-2.77-1.35-13.59-4c-9.27-2.29-32.55-7-32.55-7s-3.92,15.79,9.61,25.23S289.47,215,289.47,215Z" style="fill:#fff;opacity:0.30000000000000004"></path><path d="M279.35,212a67.44,67.44,0,0,0,10.17,2.27,41.42,41.42,0,0,1,1.85-9.59c-8.25-2.9-17.1-5.95-17.1-5.95a31.45,31.45,0,0,0,1-10l-17.68,4.81a23.37,23.37,0,0,0,2.3,5.72C263.21,205.16,269.69,208.6,279.35,212Z" style="opacity:0.1"></path><path d="M353.89,273.68c-7.74-3.92-13.81-10-18.94-16.55-4-6.65-21.1-35.09-24.15-39.16-4.92-6.54-39.61-17.4-39.61-17.4v0a46.21,46.21,0,0,0,3.14-10.13c.19-1,.28-2.92.34-3.86L236.89,198c1.26,7.27,2.65,11.49,5,15,.38.59.8,1.17,1.24,1.73,4.2,5.3,9.28,8.07,16.62,9.82,8.24,2,29.92,4.68,32.25,5.21s4.52,0,6,4,1.44,5.91,6.46,10.47c6.45,5.85,17.35,12.75,21.77,19.43a12.11,12.11,0,0,1,1,5c-.14,6.58,5.47,5.81,9.63,9.07,2.26,1.77,3.87,3.82,6.72,4.74a18.34,18.34,0,0,0,8,.6c2.41-.34,5.95-1.73,7.33-3.92C360.66,276.24,356.1,274.8,353.89,273.68Z" style="fill:#ffa8a7"></path><path d="M236.89,198.61s.91,10.18,5.32,16.21a27.49,27.49,0,0,0,16.59,10.72c6.47,1.56,13.68,2.61,13.68,2.61s.51-6-3.84-9.69c0,0,5.49-.38,8.95-3.12s7.38-8.28,12-8.35a176.09,176.09,0,0,0-18.13-7s4.65-6.62,3.88-14.48Z" style="fill:#A8D0E6"></path><path d="M236.89,198.61s.91,10.18,5.32,16.21a27.49,27.49,0,0,0,16.59,10.72c6.47,1.56,13.68,2.61,13.68,2.61s.51-6-3.84-9.69c0,0,5.49-.38,8.95-3.12s7.38-8.28,12-8.35a176.09,176.09,0,0,0-18.13-7s4.65-6.62,3.88-14.48Z" style="fill:#fff;opacity:0.5"></path><path d="M305.17,159.07c-3.48,2.56-10.36,8.15-16.53,12.44-4.59-5.15-11.72-15-15.55-20.22-5.61-7.63-11.18-10.73-15.82-9.26,0,0,.81,4.22,1.88,7.93.94,3.31,3.51,13.62,3.51,13.62s18.08,18.71,20.93,21,5.54,2,7.65.63c1-.62,9.19-7.68,12.42-10.64,1.55-1.42,8-7.6,9.62-8.94Z" style="fill:#ffa8a7"></path><path d="M303.86,160.05c2.89-2.23,3.12-4.32,7.29-6.69,2.72-1.55,4-2.85,6.94-3.58,1.87-.46,4,1,3.75,1.53-.51,1.22-2.47,1.77-3.41,3.07-1.06,1.49.12,2.33,2.58,2.86,1.56.33,5.41,1,10.42,2.31,2.39.64,2,4.93-2.83,6.8s-14-.61-18.3,1.93S303.86,160.05,303.86,160.05Z" style="fill:#ffa8a7"></path><path d="M331.43,159.55c-5-1.34-8.86-2-10.42-2.31a4.65,4.65,0,0,1-2.75-1.26c-.07.05-.15.08-.23.14a7.55,7.55,0,0,1-2.93.69,3.49,3.49,0,0,0-3.08,2.45,2.88,2.88,0,0,0,.51,2.36,5.81,5.81,0,0,0,2.11,1.5,15.44,15.44,0,0,1,5,3.37c.17.2.34.4.52.59,3.15.07,6.27.12,8.46-.73C333.39,164.48,333.82,160.19,331.43,159.55Z" style="fill:#f28f8f"></path><path d="M328,155.52a6.82,6.82,0,0,1-1.1.28,3.39,3.39,0,0,0-1.45.6,5.15,5.15,0,0,0-.93,1,1.22,1.22,0,0,1-.92.51,5.46,5.46,0,0,0-2.62.71c-.44.36-.68.91-1.09,1.31a3.17,3.17,0,0,1-2.65.61,5.16,5.16,0,0,0-.88-.11c-.71,0-1.28.56-2,.52l-.19,0a1.85,1.85,0,0,1-1.46-2.43c.21-.91-.28-1.39.27-2.14a3,3,0,0,1,2.4-1.2,1.47,1.47,0,0,0,.59-.06c.29-.12.43-.44.58-.71a3.19,3.19,0,0,1,2-1.78c.49-.12,1-.06,1.5-.22.88-.28,1.51-1.23,2.44-1.26.24,0,.48,0,.72,0,.89-.13,1.13-1.35,1.87-1.88.58-.41,1.37-.32,2-.54s1.43-1,2.26-1.09a2.28,2.28,0,0,1,2.2,1.18,4.91,4.91,0,0,1,.62,2,2.2,2.2,0,0,1-.52,1.91,4.47,4.47,0,0,1-1.24.75,2.94,2.94,0,0,0-.74.4,2.89,2.89,0,0,0-.85.89A1.43,1.43,0,0,1,328,155.52Z" style="fill:#f0997a"></path><path d="M331.6,152.78a1.73,1.73,0,0,0,.49-.93c-1.07.43-2.54-.16-3.3.7-.42.49-.48,1.32-1.08,1.54a2.08,2.08,0,0,1-.86,0,2.93,2.93,0,0,0-2.42,1c-.44.49-.72,1.15-1.29,1.47a4.76,4.76,0,0,1-2.2.25,4,4,0,0,0-2.82,1.39,2.91,2.91,0,0,1-.69.71,1.27,1.27,0,0,1-1,.09,4.28,4.28,0,0,0-1.33-.11,1.93,1.93,0,0,1-1.24-.17,1.35,1.35,0,0,1-.49-.89,2.67,2.67,0,0,1,1.24-2.48l0,0a3,3,0,0,0-1.66,1.11c-.55.75-.06,1.23-.27,2.14a1.85,1.85,0,0,0,1.46,2.43l.19,0c.76,0,1.33-.5,2-.52a5.16,5.16,0,0,1,.88.11,3.17,3.17,0,0,0,2.65-.61c.41-.4.65-.95,1.09-1.31a5.46,5.46,0,0,1,2.62-.71,1.22,1.22,0,0,0,.92-.51,5.15,5.15,0,0,1,.93-1,3.39,3.39,0,0,1,1.45-.6,6.82,6.82,0,0,0,1.1-.28,1.43,1.43,0,0,0,.77-.7,2.89,2.89,0,0,1,.85-.89,2.94,2.94,0,0,1,.74-.4A4.47,4.47,0,0,0,331.6,152.78Z" style="opacity:0.1"></path><path d="M314.13,161c3.18,1.15,8.8,4,14.91,11.78,3,3.77,5.83,10.63,8.55,4.65a20.85,20.85,0,0,0,1.65-7.51,25.81,25.81,0,0,0-1.19-9.28,19.92,19.92,0,0,0-5.33-8.49,4.4,4.4,0,0,0-.6-.46c-.13.11-.34.43-.47.57a2,2,0,0,1-.48.38c-.49.27-1.09.32-1.57.61a8.16,8.16,0,0,0-1.11,1.09,3,3,0,0,1-1.57.77,4.22,4.22,0,0,0-1.28.25c-.63.32-.87,1.08-1.38,1.57a3.55,3.55,0,0,1-2.17.81,3.77,3.77,0,0,0-1.25.26c-.76.35-1.19,1.19-1.92,1.62a8.4,8.4,0,0,1-2.82.53A7.48,7.48,0,0,0,314.13,161Z" style="fill:#ffbda7"></path><path d="M332.72,152.15a4.4,4.4,0,0,0-.6-.46c-.13.11-.34.43-.47.57a2,2,0,0,1-.48.38c-.49.27-1.09.32-1.57.61a8.16,8.16,0,0,0-1.11,1.09,3,3,0,0,1-1.57.77,4.22,4.22,0,0,0-1.28.25c-.63.32-.87,1.08-1.37,1.57a3.61,3.61,0,0,1-2.18.81,3.77,3.77,0,0,0-1.25.26c-.76.35-1.19,1.19-1.92,1.62a4.78,4.78,0,0,1-2.09.44.57.57,0,0,0,.13.08,28.36,28.36,0,0,1,8.88,5.72,39.85,39.85,0,0,1,5.35,6.66c.79,1.21,1.53,2.45,2.26,3.7a8.1,8.1,0,0,0,2.3,3,1.23,1.23,0,0,0,.47.19,5.13,5.13,0,0,0,1.37-2,20.85,20.85,0,0,0,1.65-7.51,25.81,25.81,0,0,0-1.19-9.28A19.92,19.92,0,0,0,332.72,152.15Z" style="fill:#fff;opacity:0.30000000000000004"></path><path d="M321.48,159.49a1.62,1.62,0,0,0,.44,1.83,3.67,3.67,0,0,0,1.81.83,3.91,3.91,0,0,0,1.89.07,1.69,1.69,0,0,0,1.26-1.29,2,2,0,0,0-.92-1.72,4.33,4.33,0,0,0-3.23-.65A2,2,0,0,0,321.48,159.49Z" style="fill:#b16668"></path><path d="M333.33,161.35a2.59,2.59,0,0,0-1.23.42,1.37,1.37,0,0,0-.61,1.1c0,1.51,2.36,2.26,3.56,2.25a2.52,2.52,0,0,0,1.35-.35c1-.63.67-1.8,0-2.5a3.42,3.42,0,0,0-1.73-1A4.3,4.3,0,0,0,333.33,161.35Z" style="fill:#b16668"></path><path d="M334.63,168.14a3.41,3.41,0,0,1,2.48,2.23,1.72,1.72,0,0,1-.3,1.58,2,2,0,0,1-1.33.59,3.68,3.68,0,0,1-3.37-1.45,2,2,0,0,1,0-2A2.24,2.24,0,0,1,334.63,168.14Z" style="fill:#b16668"></path><path d="M333.78,157.55a1.05,1.05,0,0,0,.83-1.44,3.3,3.3,0,0,0-2.93-2.18c-1.53-.09-2.48,1.22-1.47,2.54a2.94,2.94,0,0,0,1.65,1A4.13,4.13,0,0,0,333.78,157.55Z" style="fill:#b16668"></path><path d="M320.89,150.24c1.51.65,3.91,1,3.61,2s-2.57,2-4.11,1.54-2.6-.84-2.6-.84Z" style="fill:#ffa8a7"></path><path d="M238,146.05l-8.53,3s3.46,3.88,3.21,13.63a17.88,17.88,0,0,1-3.16,9.86c-.46,8.7,7.37,25.43,7.37,25.43s8.34,4.11,23.1-.64c13-4.16,14-12.38,14-12.38l-8.14-3.42.38-8a106.12,106.12,0,0,0-2.93-17.43A62.09,62.09,0,0,0,257.27,142l-6.45,1.17Z" style="fill:#ffa8a7"></path><path d="M236.89,198s3.51,1.72,10,1.64c1.14-1.09,1.18-2-1.6-2.22-7.57-.57-9.49-6.71-10.75-11a88.15,88.15,0,0,1-2-11.74,46.3,46.3,0,0,0,1.34-7.52c-.43,2.73-2.72,7.3-2.72,7.3l-.12,7.73h0A116.07,116.07,0,0,0,236.89,198Z" style="fill:#f28f8f"></path><path d="M274.71,184.73l-6.66-2.63L266.47,179l.53-5.26c1.59-1.78,4.82-6.78,2.16-12.39a19.28,19.28,0,0,0-2.57-3.7c-1.17-1.36-4.62-5-8.12-8.81-1.88-2.06-3.61-4.47-5.51-5.94l-3.29.6s7.81,7.31,8,10.81-14,7.84-16.69,4.32-4.57-8-7.15-11l-4.36,1.55c3.71,3.42,7.71,11.51,7,18.11a15.43,15.43,0,0,1-5.37,10l-1,1a84.75,84.75,0,0,0,2.41,10.54c1.42,4.39,3.66,9.44,3.66,9.44s.78,6.92,2.9,11.58c.84-.54,1.91-4.94,1.64-8.66,4.6,3,12.78,7.75,27.51-2.66C274.57,194,274.71,184.73,274.71,184.73Z" style="fill:#455a64"></path><path d="M261.93,202.21c-1.38.3-12,2.34-20-3.87-8.51-6.66-9-19.34-9.35-22.6h0a11.93,11.93,0,0,1-1.56,1.5l-1,1a84.75,84.75,0,0,0,2.41,10.54c1.42,4.39,3.66,9.44,3.66,9.44s.78,6.92,2.9,11.58c.84-.54,1.91-4.94,1.64-8.66C244.55,203.72,251.05,207.5,261.93,202.21Z" style="fill:#37474f"></path><path d="M251.48,233.74a39.69,39.69,0,0,1-5.62-4.57,19.4,19.4,0,0,0,4.36,1,2.69,2.69,0,0,0,3-2.13c.05-.58-1.4-.6-3.44-1.79-2.6-1.52-4.16-2.91-7.3-3.81a4.27,4.27,0,0,1-2.89-2.35c-2.19-4.63-9.61-24.62-9.61-24.62l1.16-21s7.82-15.74-1.64-25.37c-10.51,3.59-11.64,6.82-12.94,20.58-1.16,12.34-2.7,22.35.06,30.14h0a48.11,48.11,0,0,0,3.24,8.38c2.12,4.24,11.61,21.81,14.48,25.2,6.2,7.32,10.82,9,15.68,8.83C257.81,241.94,256.52,237.23,251.48,233.74Z" style="fill:#ffa8a7"></path><path d="M213.33,113.82a11.42,11.42,0,0,0-4.4,8.36,27.46,27.46,0,0,0,.49,5.93,13.43,13.43,0,0,1,.26,3.94c-.32,2.26-1.75,4.11-2,6.4a10,10,0,0,0,1.13,6.11,10.15,10.15,0,0,0,8.81,5.09,4.63,4.63,0,0,0,2.08-.44,2.21,2.21,0,0,0,1.23-1.65c.14-1.27-1.05-2.24-1.64-3.37a6,6,0,0,1,.16-4.95c.65-1.58,1.62-3,2.18-4.63a9.91,9.91,0,0,0,0-6.32c-.67-2-1.94-3.7-2.31-5.84-.51-2.94.61-6.31,3.23-7.73l-.63-2.74A11,11,0,0,0,213.33,113.82Z" style="fill:#A8D0E6"></path><path d="M213.33,113.82a11.42,11.42,0,0,0-4.4,8.36,27.46,27.46,0,0,0,.49,5.93,13.43,13.43,0,0,1,.26,3.94c-.32,2.26-1.75,4.11-2,6.4a10,10,0,0,0,1.13,6.11,10.15,10.15,0,0,0,8.81,5.09,4.63,4.63,0,0,0,2.08-.44,2.21,2.21,0,0,0,1.23-1.65c.14-1.27-1.05-2.24-1.64-3.37a6,6,0,0,1,.16-4.95c.65-1.58,1.62-3,2.18-4.63a9.91,9.91,0,0,0,0-6.32c-.67-2-1.94-3.7-2.31-5.84-.51-2.94.61-6.31,3.23-7.73l-.63-2.74A11,11,0,0,0,213.33,113.82Z" style="opacity:0.4"></path><path d="M250.07,100.41c-15.56-5.42-26.33,2.93-28.75,12.78-1.62,6.57.79,14.56,5.54,18.43a42.88,42.88,0,0,1,4.4,4c1.21,1.33,2.67,2.52,3.72,2.65l-.59-3.38a15.13,15.13,0,0,0,7.47,1.44l4-.19a17.19,17.19,0,0,0,16.32-18l-.05-1.12C261.64,109.5,257.34,103,250.07,100.41Z" style="fill:#A8D0E6"></path><g style="opacity:0.30000000000000004"><path d="M250.07,100.41c-15.56-5.42-26.33,2.93-28.75,12.78-1.62,6.57.79,14.56,5.54,18.43a42.88,42.88,0,0,1,4.4,4c1.21,1.33,2.67,2.52,3.72,2.65l-.59-3.38a15.13,15.13,0,0,0,7.47,1.44l4-.19a17.19,17.19,0,0,0,16.32-18l-.05-1.12C261.64,109.5,257.34,103,250.07,100.41Z"></path></g><path d="M254.5,107c2.34,1.2,5.49,6.72,5.95,18.67.39,10.13-2.73,12.83-4.33,13.65s-4.81.58-7.93.26l.31,4.93s5.67,5.17,5.58,8-7,4.49-11.14,2a34.67,34.67,0,0,1-7.8-7l-.85-14.53s-1.7,1.88-4.95-.62c-2.68-2.07-3.77-5.77-1.91-7.9a4.44,4.44,0,0,1,7.13,1,38.56,38.56,0,0,0,10.94-5C251.83,116.35,253.58,111.52,254.5,107Z" style="fill:#ffa8a7"></path><path d="M248.4,123.69a1.27,1.27,0,1,1-1.37-1.23A1.31,1.31,0,0,1,248.4,123.69Z" style="fill:#263238"></path><path d="M248.93,132.27l3,.88a1.54,1.54,0,0,1-1.9,1.11A1.64,1.64,0,0,1,248.93,132.27Z" style="fill:#f28f8f"></path><path d="M258.75,119.54l-2.61-1.73a1.5,1.5,0,0,1,2.13-.48A1.64,1.64,0,0,1,258.75,119.54Z" style="fill:#263238"></path><path d="M258.23,122.55a1.27,1.27,0,1,1-1.37-1.23A1.3,1.3,0,0,1,258.23,122.55Z" style="fill:#263238"></path><polygon points="252.47 121.32 252.58 129.62 256.59 128.28 252.47 121.32" style="fill:#f28f8f"></polygon><path d="M248.19,139.56c-3.28-.23-10.09-1.73-11.29-4.32a6.91,6.91,0,0,0,2.55,3.24c2.11,1.59,8.87,3.11,8.87,3.11Z" style="fill:#f28f8f"></path></g></g><g id="freepik--character-1--inject-1--inject-42"><g id="freepik--character--inject-1--inject-42"><path d="M200.44,227.79l-16-51.37c15-3.13,18,8.74,21.05,19.1,3.54,11.93,6.39,23.33,6.39,23.33l29.38,15s3.17,6.87-10.25,5S200.44,227.79,200.44,227.79Z" style="fill:#ffa8a7"></path><path d="M295.26,292.44a48.82,48.82,0,0,1-11.83-14.95c-2.16-4-6.44-16.25-7.89-20.4-1.63-4.65-5-16-5-16s-14,13.07-14,13.15c2.24,3.41,11,15.32,11.71,21.12a11.34,11.34,0,0,1-.48,3.76c-.9,3.39-.11,5.77,1.9,7.54s5.23,3,7,5.17c1.89,2.41,3.13,6,5.85,7.63a14.38,14.38,0,0,0,8.08,2.06c2.6,0,6.58-.73,8.56-2.65C301.72,296.36,297.66,294.4,295.26,292.44Z" style="fill:#ffa8a7"></path><path d="M271.6,240.39c-3.6-13.32-6.38-27.28-11.11-29.88-5.62-3.09-8.89-1.67-34.62,10.51-6.47,3.06-16.43,9.11-16.43,9.11l-36.79,30.26,36.85,1.13L250,238.67c1.8,11.35,7.94,18.42,12.85,25.77,0,0,8.5-.53,13.14-6.08C276,258.36,273.94,249,271.6,240.39Z" style="fill:#455a64"></path><path d="M217.36,257.09l-8.65-5.5s3.58-1.19,5.19-7.13c.47,5.41-1.15,7.46-1.15,7.46l4.27,2.35c13.69-5.46,33-15.6,33-15.6Z" style="fill:#37474f"></path><path d="M305.68,298.9a3.72,3.72,0,0,0-2.48.12c-3.78.56-5.82,3.89-7.27,6.81-1.06,2.13-2,4.31-3.16,6.41-.41.77-2.22,3.45-2.22,3.45s-6.19-4.93-9-7.55c-3.46-3.2-14.19-13.59-20.57-20-9.79-9.86-12.81-12.8-20.94-17.39-8.07-4.95-34.75-17.73-43-22.81-7.64,3.8-16.32,4.16-20.33,11-.35,4.48,5.89,10.63,9.85,12.75C198,277.8,221.59,284.29,237,289c4.5,9,5.5,11.79,14.18,18.05,7.88,5.69,17.78,10.55,27.74,16.84a21.82,21.82,0,0,1,5.33,5.31c.45.68.86,1.45,1.25,2.16,1.39,2.5,3.49,4,6.49,3.66a8.33,8.33,0,0,0,5.32-2.82c2.85-3.21,3.21-7.9,5.21-11.7,1.84-3.51,5.2-5.72,6-9.78C309.17,307.19,308.63,299.06,305.68,298.9Z" style="fill:#ffa8a7"></path><path d="M166.08,252.09c2.21,6.73,5.65,14.59,18.4,22s51.42,17.37,51.42,17.37a56.61,56.61,0,0,0,6,8.19c6.19,6.23,19.23,13.75,19.23,13.75s1.34-10.41,11.56-13.75c0,0-16.95-19.2-23.7-24.63s-55.79-30.57-55.79-30.57Z" style="fill:#455a64"></path><path d="M156.87,184.12s-1,3.16-1.88,12.5c-.61,6.26-1,14.36,1.76,29.14,1.12,6.11,3.26,18.13,8.81,28.31,6.74,1.59,37.72-6,43.88-23.94,0,0-8.44-11.76-10.82-34.7-1.3-12.5-4.3-19.82-14.71-18.94L170.08,179Z" style="fill:#A8D0E6"></path><path d="M195.16,147.31a14.33,14.33,0,0,0-28.62.69l-6.78-4.22a5.11,5.11,0,0,0-4.09,1.8c-1.66,2-.21,7.68,2.48,13.16,0,0,3,10.13,4,11.76a4.68,4.68,0,0,0,2.86,2l-.61-6.23,25.87-3.49-2.68-1.67A14.31,14.31,0,0,0,195.16,147.31Z" style="fill:#263238"></path><path d="M163.55,158.81c-.79.56-2.09-.94-3.2-1.93s-4.55-2.19-5.94,1.44,2.11,8.17,4.8,8.79c4.63,1.07,5.08-1.88,5.08-1.88l1.6,16.29c4.24,4,17.49,2,14.69-1.57l-.4-5a28.19,28.19,0,0,0,6.12-.16c3.29-.77,5.18-3.55,5.91-7.23,1.17-5.91,1.43-10.63-.82-21.89-2.47-12.35-17-11.36-24.43-5.83S163.55,158.81,163.55,158.81Z" style="fill:#ffa8a7"></path><path d="M193.83,133.88a5.34,5.34,0,0,0-3.53-.18,4.25,4.25,0,0,0-2.81-4.11,4.92,4.92,0,0,0-5.33,1,2.54,2.54,0,0,0-2.26-2.71,6.92,6.92,0,0,0-3.79.87c-1.78.81-3.53,1.7-5.35,2.44-3.19,1.29-6.63,2.13-9.47,4.08a5.88,5.88,0,0,0-1.75,1.69,5.14,5.14,0,0,0-.64,3.29,6.71,6.71,0,0,0,.23,1.1,2.7,2.7,0,0,0-.81-.55,2.77,2.77,0,0,0-3.7,1.54l5.08,2.24c-.06,1-.12,2-.16,3-.1,2.64-.42,5.73.34,8.3a1.75,1.75,0,0,0,.47.95c1.11.86,2.89,3.36,3.31,3.32,1.39-.13,1.53-6.23,2-9.86.52-4.13.73-5.64,2.28-5.55l.36,0c2.72.15,5.35.06,8-.05,3.23-.13,6.31.16,9.51-.62a16,16,0,0,0,8.82-5.24,4.12,4.12,0,0,0,1-2.17A3.07,3.07,0,0,0,193.83,133.88Z" style="fill:#263238"></path><path d="M180.18,175s-7.54-.92-10.24-2.1a8.54,8.54,0,0,1-3.86-3.28,11.58,11.58,0,0,0,2.36,4c2.08,2.28,11.89,3.32,11.89,3.32Z" style="fill:#f28f8f"></path><path d="M178.61,156a1.33,1.33,0,1,1-1.43-1.28A1.37,1.37,0,0,1,178.61,156Z" style="fill:#263238"></path><path d="M176.79,151,174,153.38a1.91,1.91,0,0,1,.22-2.63A1.77,1.77,0,0,1,176.79,151Z" style="fill:#263238"></path><path d="M179.47,166.13l3.49,1a1.79,1.79,0,0,1-2.22,1.31A1.91,1.91,0,0,1,179.47,166.13Z" style="fill:#f28f8f"></path><path d="M190.75,151.15l-3-1.93a1.73,1.73,0,0,1,2.42-.53A1.82,1.82,0,0,1,190.75,151.15Z" style="fill:#263238"></path><path d="M189.9,154.56a1.33,1.33,0,1,1-2.66.2,1.35,1.35,0,0,1,1.22-1.48A1.37,1.37,0,0,1,189.9,154.56Z" style="fill:#263238"></path><polygon points="182.96 155 183.8 164.01 189.05 162.44 182.96 155" style="fill:#f28f8f"></polygon><path d="M206,215.24a6.47,6.47,0,0,1-1.16.25,3.7,3.7,0,0,0-1.54.58,5.7,5.7,0,0,0-1,1.07,1.31,1.31,0,0,1-1,.49c-.92.15-2,0-2.77.64-.47.37-.75.94-1.19,1.33a3.28,3.28,0,0,1-2.8.54,4.88,4.88,0,0,0-.92-.14c-.75,0-1.36.53-2.16.45a1.33,1.33,0,0,1-.2,0,2,2,0,0,1-1.43-2.63c.25-.94-.25-1.46.36-2.22a3.17,3.17,0,0,1,2.56-1.17,1.84,1.84,0,0,0,.62,0c.31-.11.47-.44.64-.73a3.37,3.37,0,0,1,2.12-1.78c.52-.11,1.07,0,1.58-.17.94-.26,1.63-1.24,2.61-1.23a6.28,6.28,0,0,0,.75,0c.94-.1,1.24-1.37,2-1.89.62-.41,1.44-.29,2.15-.5s1.54-.94,2.41-1a2.35,2.35,0,0,1,2.26,1.32,5.09,5.09,0,0,1,.58,2.12,2.31,2.31,0,0,1-.62,2,4.45,4.45,0,0,1-1.33.74,3.87,3.87,0,0,0-.79.39,3,3,0,0,0-.93.9A1.46,1.46,0,0,1,206,215.24Z" style="fill:#f0997a"></path><path d="M209.91,212.51a2.31,2.31,0,0,0,.62-2,6,6,0,0,0-.16-1,3.79,3.79,0,0,1-.79.71c-.57.35-1.3.47-1.75,1s-.52,1.15-1,1.56c-.84.72-2.2.06-3.21.51s-1.38,1.93-2.47,2.18c-.71.16-1.41-.28-2.14-.34a2,2,0,0,0-1.41.43c-.36.27-.61.66-1,.94a1.07,1.07,0,0,1-1.24.17,1,1,0,0,1-.28-1.09,9.43,9.43,0,0,1,.47-1.09,3,3,0,0,0-.1-2.34,3.89,3.89,0,0,0-1.47,1.54c-.17.29-.33.62-.64.73a1.84,1.84,0,0,1-.62,0,3.17,3.17,0,0,0-2.56,1.17c-.61.76-.11,1.28-.36,2.22a2,2,0,0,0,1.43,2.63,1.33,1.33,0,0,0,.2,0c.8.08,1.41-.47,2.16-.45a4.88,4.88,0,0,1,.92.14,3.28,3.28,0,0,0,2.8-.54c.44-.39.72-1,1.19-1.33.78-.6,1.85-.49,2.77-.64a1.31,1.31,0,0,0,1-.49,5.7,5.7,0,0,1,1-1.07,3.7,3.7,0,0,1,1.54-.58,6.47,6.47,0,0,0,1.16-.25,1.46,1.46,0,0,0,.84-.7,3,3,0,0,1,.93-.9,3.87,3.87,0,0,1,.79-.39A4.45,4.45,0,0,0,209.91,212.51Z" style="opacity:0.1"></path><path d="M178.77,237.06a72.6,72.6,0,0,1,11.37-3.86c2-.42,4-.79,5.89-1.38,3.23-1,6.17-2.08,10.21-8,.74-1.09,1.08-2.88-.12-3.8a3.52,3.52,0,0,0-2.28-.54c-1.93.07-3.81.6-5.72.82a17,17,0,0,1-3.35.06,4.3,4.3,0,0,0-1.34,0,7.32,7.32,0,0,1-1.55.12h-.6a.84.84,0,0,1,0-.23c.33-1.44,1.68-2.51,2.29-3.86s.79-3.09-.09-4.12a.71.71,0,0,0-.89-.17,2.7,2.7,0,0,0-.78.87,12,12,0,0,1-3.3,3.35,17.44,17.44,0,0,0-3.67,3.13c-1.47,1.85-2.5,3.9-4.91,4.64-5.58,1.7-24.11,6.13-24.11,6.13l3-20.87s3-15.36-2-25.2c-4.1,1-12.08,1.81-14.71,14.54-2.33,11.27-4.51,35.47-2.82,44.34.8,4.25,5.34,4.57,12.82,3.39C159.4,245.24,176.75,237.9,178.77,237.06Z" style="fill:#ffa8a7"></path><path d="M206.24,223.77c.74-1.09,1.08-2.88-.12-3.8a3.52,3.52,0,0,0-2.28-.54c-1.93.07-3.81.6-5.72.82a17,17,0,0,1-3.35.06,4.3,4.3,0,0,0-1.34,0,7.32,7.32,0,0,1-1.55.12h-.6a10.35,10.35,0,0,0,3.23,3.77,13.46,13.46,0,0,1,4.31,6.59C201.08,229.78,203.38,228,206.24,223.77Z" style="fill:#f28f8f"></path><path d="M191.28,220.45c3.29,1.32,9.07,4.53,15.17,12.92,3,4.07,5.7,11.36,8.77,5.21a21.59,21.59,0,0,0,2-7.81,27.06,27.06,0,0,0-.88-9.77,21.05,21.05,0,0,0-5.25-9.11,5.22,5.22,0,0,0-.62-.5c-.14.12-.37.44-.51.58a1.93,1.93,0,0,1-.52.38c-.52.27-1.15.29-1.67.58a8.28,8.28,0,0,0-1.2,1.1,3.18,3.18,0,0,1-1.68.75,4.06,4.06,0,0,0-1.35.21c-.67.31-1,1.1-1.5,1.59a3.76,3.76,0,0,1-2.32.76,3.88,3.88,0,0,0-1.31.23c-.82.34-1.3,1.2-2.07,1.62s-2,.29-3,.44A8,8,0,0,0,191.28,220.45Z" style="fill:#ffbda7"></path><path d="M211.11,211.89a5.22,5.22,0,0,0-.62-.5c-.14.12-.37.44-.51.58a1.93,1.93,0,0,1-.52.38c-.52.27-1.15.29-1.67.58a8.28,8.28,0,0,0-1.2,1.1,3.18,3.18,0,0,1-1.68.75,4.06,4.06,0,0,0-1.35.21c-.67.31-1,1.1-1.5,1.59a3.76,3.76,0,0,1-2.32.76,3.88,3.88,0,0,0-1.31.23c-.82.34-1.3,1.2-2.07,1.62a4.87,4.87,0,0,1-2.21.38.6.6,0,0,0,.13.09,29.79,29.79,0,0,1,9.08,6.34,42.21,42.21,0,0,1,5.35,7.19c.78,1.29,1.51,2.62,2.22,4a8.47,8.47,0,0,0,2.3,3.23,1.24,1.24,0,0,0,.49.22,5.54,5.54,0,0,0,1.51-2,21.78,21.78,0,0,0,2-7.81,27.06,27.06,0,0,0-.88-9.77A21.05,21.05,0,0,0,211.11,211.89Z" style="fill:#fff;opacity:0.30000000000000004"></path><path d="M200.06,219.22a1.72,1.72,0,0,0,.39,1.94,5.13,5.13,0,0,0,3.85,1.07,1.74,1.74,0,0,0,1.36-1.3,2,2,0,0,0-.9-1.83,4.49,4.49,0,0,0-3.35-.81A2.09,2.09,0,0,0,200.06,219.22Z" style="fill:#b16668"></path><path d="M211.39,221.56a2.74,2.74,0,0,0-1.31.39,1.44,1.44,0,0,0-.68,1.13c-.05,1.59,2.39,2.46,3.64,2.5a2.65,2.65,0,0,0,1.44-.32c1-.62.77-1.85,0-2.62a3.64,3.64,0,0,0-1.78-1.07A5.08,5.08,0,0,0,211.39,221.56Z" style="fill:#b16668"></path><path d="M212.49,228.73a3.55,3.55,0,0,1,2.51,2.43,1.76,1.76,0,0,1-.38,1.64,2.1,2.1,0,0,1-1.42.57,3.84,3.84,0,0,1-3.47-1.65,2.05,2.05,0,0,1,.12-2.1A2.36,2.36,0,0,1,212.49,228.73Z" style="fill:#b16668"></path><path d="M212,217.6a1.11,1.11,0,0,0,.93-1.48,3.47,3.47,0,0,0-3-2.4c-1.61-.16-2.65,1.18-1.64,2.61a3.06,3.06,0,0,0,1.69,1.14A4.19,4.19,0,0,0,212,217.6Z" style="fill:#b16668"></path></g></g><g id="freepik--Pizza--inject-1--inject-42"><g id="freepik--pizza--inject-1--inject-42"><polygon points="117.29 295 57.56 329.49 54 336.06 113.72 301.57 117.29 295" style="fill:#A8D0E6"></polygon><polygon points="117.29 295 57.56 329.49 54 336.06 113.72 301.57 117.29 295" style="opacity:0.2"></polygon><polygon points="136.84 357.15 77.1 391.63 77.1 398.66 136.84 364.17 136.84 357.15" style="fill:#A8D0E6"></polygon><polygon points="136.84 357.15 77.1 391.63 77.1 398.66 136.84 364.17 136.84 357.15" style="opacity:0.2"></polygon><polygon points="196.57 398.66 196.57 391.63 136.84 357.15 136.84 364.17 196.57 398.66" style="fill:#A8D0E6"></polygon><polygon points="196.57 398.66 196.57 391.63 136.84 357.15 136.84 364.17 196.57 398.66" style="opacity:0.1"></polygon><polygon points="77.1 398.66 136.84 364.17 196.57 398.66 136.84 433.15 77.1 398.66" style="fill:#A8D0E6"></polygon><polygon points="77.1 398.66 136.84 364.17 196.57 398.66 136.84 433.15 77.1 398.66" style="fill:#fff;opacity:0.5"></polygon><path d="M95.71,394c-.5,3.72,1.14,7.37,2.74,10.77a11.09,11.09,0,0,0,1.82,3,11,11,0,0,0,2.71,1.89l5.68,3.16a4,4,0,0,0,1.72.64c1.23.08,2.11-1.05,3.12-1.76,7.74-5.41,23.77-15.24,23.77-15.24s.41,2.19.53,2.91q.6,3.87.95,7.79c.24,2.66.33,5.57-1.21,7.76-.59.84-1.42,1.6-1.55,2.62a2.86,2.86,0,0,0,2,2.78,8.42,8.42,0,0,0,3.61.29,48.26,48.26,0,0,0,7-.8c5.41-1.17,10.22-4.17,14.91-7.11-1.48-1.6-3.59-2.44-5.58-3.32a68,68,0,0,1-17-11.38c6.95.42,21.88,1.32,31.91,1.15a5.41,5.41,0,0,0,2.65-.67,2.78,2.78,0,0,0,1.36-3.59A6.36,6.36,0,0,0,175.5,393q-4.35-4.89-8.69-9.77a19.73,19.73,0,0,0-3.12-3,20.14,20.14,0,0,0-4.63-2.22c-5.08-1.9-10.33-3.82-15.75-3.64a1.89,1.89,0,0,0-1,.22,1.94,1.94,0,0,0-.7,1.21c-1.59,5.9,0,12.43-2.2,18.12a2,2,0,0,1-.83,1.14c-.49.25-1.24-.24-1.76-.4-5.15-1.62-10.13-2.92-15.28-4.54a33.06,33.06,0,0,1-5.82-2.25c-2-1.06-3.73-2.53-5.78-3.43C103.69,381.71,96.54,387.83,95.71,394Z" style="opacity:0.1"></path><path d="M136.82,394.64l.1,1.57a53,53,0,0,0,7.51.57c4.81.09,25.77.88,26.77.23,1.59-1-.34-3.45-.34-3.45H137.64Z" style="fill:#ffbda7"></path><path d="M122.53,403.45c.76-.48,6.49-3.89,7.24-4.37,1.23-.79,2.44-1.59,3.59-2.47.45-.34.85-.68.4-2a8,8,0,0,0-1.38-.36,9.76,9.76,0,0,0-4.46.62c-3.15,1-6.15,2.42-9.23,3.64A34.3,34.3,0,0,0,112,401.6a27.17,27.17,0,0,0-3.71,3.24,4.48,4.48,0,0,0-1.57,2.42c-.18,1.37.47,3.58,1.85,3.77A118.08,118.08,0,0,0,122.53,403.45Z" style="fill:#ffbda7"></path><path d="M162.76,379.57a3.67,3.67,0,0,1,3.25-.12,6.38,6.38,0,0,1,2.05,1.53c.84.94,1.87.88,4.25,2.57a5.86,5.86,0,0,1,2.71,3.56c.38.76.13,1.76.41,2.58a23.4,23.4,0,0,0,1.44,2.28,3.64,3.64,0,0,1,.34,2.46,2.29,2.29,0,0,1-1.71,1.68,7.61,7.61,0,0,0-.82.09,5.21,5.21,0,0,0-.94.48c-.7.36-1.73.8-2.42.41s-1-1.22-1-2.44a13.84,13.84,0,0,0-2-2.72c-1.16-1.6-2.31-3.21-3.46-4.81-.27-.38-4.35-6.17-4.41-6.14Z" style="fill:#f0997a"></path><path d="M166.37,389.12l.53.74,1.25,1.74.37.51,0,.05a3.11,3.11,0,0,0,.47.49,1.78,1.78,0,0,1,.6.81,4.8,4.8,0,0,1,.71,1.19c0,1.22.16,2,1,2.44s1.72,0,2.42-.41a5.21,5.21,0,0,1,.94-.48,7.61,7.61,0,0,1,.82-.09,2.29,2.29,0,0,0,1.71-1.68,3.64,3.64,0,0,0-.34-2.46,6.23,6.23,0,0,0-.74-1.1,1.54,1.54,0,0,1-.37,1.77,5,5,0,0,1-3.45-.25c-.81-.43-.5-1.77-.75-2.38s-1.44-1.09-1.22-2.39-.59-2.31-2.49-2.95a5.37,5.37,0,0,1-2.94-2.28c-.77-.87-2.87-1.12-4.39-1.41.06,0,4.13,5.75,4.41,6.14Z" style="opacity:0.1"></path><path d="M160.52,381a25.82,25.82,0,0,1,5.42,4.09l.06.07a2.28,2.28,0,0,1,.22.22h0a13.42,13.42,0,0,1,4.12,9.28H136.83l2.37-1.37.88-.51.11-.06Z" style="fill:#ffbda7"></path><path d="M160.52,381a25.82,25.82,0,0,1,5.42,4.09l.06.07a2.28,2.28,0,0,1,.22.22h0a13.42,13.42,0,0,1,4.12,9.28H136.83l2.37-1.37.88-.51.11-.06Z" style="fill:#fff;opacity:0.30000000000000004"></path><path d="M136.67,373.41c-.06-.73.9-1.34,2.16-1.4a13.4,13.4,0,0,1,3.32.24c1.74.32,2.41-.14,6.15.08a11.84,11.84,0,0,1,2.64.39,25.12,25.12,0,0,0,2.62.61l.71.16c1.91.49,2.82,1.76,4.76,2.22l.46.08a4,4,0,0,0,.51,0c2.49.05,4.34,2.81,3.32,3.4s-2.8,1.75-2.8,1.75l-23.7-5.66Z" style="fill:#f0997a"></path><path d="M136.82,375.33c1.43-.42,3.22-1.1,4.83-.8a12.12,12.12,0,0,0,4.88.42,7.23,7.23,0,0,1,5.38,1.07c1.44,1,2.86.85,3.79,1.19s2.34,1.4,3.45,1.37,2.79-.69,2.74-1.22-1.27-1.28-2.4-1.57a4,4,0,0,0,.51,0c2.49.05,4.34,2.81,3.32,3.4s-2.8,1.75-2.8,1.75Z" style="opacity:0.1"></path><path d="M136.82,375.33a56.37,56.37,0,0,1,8.84.68l.13,0,.43.07h0A43.05,43.05,0,0,1,160.52,381l-23.69,13.66V392a.27.27,0,0,1,0-.09Z" style="fill:#ffbda7"></path><path d="M136.82,375.33a56.37,56.37,0,0,1,8.84.68l.13,0,.43.07h0A43.05,43.05,0,0,1,160.52,381l-23.69,13.66V392a.27.27,0,0,1,0-.09Z" style="fill:#fff;opacity:0.30000000000000004"></path><path d="M100,394.74c-1.26,0-2.94-.41-3-1.14s.68-1.37,1-2,0-1.66,0-2.47a6.2,6.2,0,0,1,.12-1.13,1.58,1.58,0,0,1,.5-.9,8.57,8.57,0,0,0,1.45-2.17,3.26,3.26,0,0,1,.41-.75c.78-1,2.19-1,3-2,.43-.53.53-1.27.91-1.85a3.92,3.92,0,0,1,1.44-1.2,4.59,4.59,0,0,1,1.27-.54,3.91,3.91,0,0,1,1.23-.07,7.48,7.48,0,0,1,2.72.65,5.16,5.16,0,0,1,1.94,1.55c.2.28.12.33,0,.56L112,382.6l-3.4,4.73c-1.2,1.67-2.4,3.33-3.59,5l-1.67,2.32Z" style="fill:#f0997a"></path><path d="M108.57,387.33l1.57-2.19,2.88-4c.08-.12.08-.2-.06-.41a5.16,5.16,0,0,0-1.94-1.55,7.48,7.48,0,0,0-2.72-.65,3.91,3.91,0,0,0-1.23.07,4.59,4.59,0,0,0-1.27.54,3.92,3.92,0,0,0-1.44,1.2,1.74,1.74,0,0,0-.1.19,7.22,7.22,0,0,1,1.82-1,3.09,3.09,0,0,1,2.61.2,1.42,1.42,0,0,1,.56.63,1.59,1.59,0,0,1-.16,1.22c-.54,1.09-1.68,1.37-2.52,2.15-.57.54-.31,1.35-2.06,2.18s-2.41,1.88-1.85,3.11-.21,1.89-.73,2.81.65,2,1.38,2.78l1.67-2.32C106.17,390.66,107.37,389,108.57,387.33Z" style="opacity:0.1"></path><path d="M103.31,394.65a11.94,11.94,0,0,1,1.18-5.09s0-.05,0-.08.07-.16.12-.25h0c1.53-3,4.35-5.86,8.48-8.24l23.7,13.66H103.31Z" style="fill:#ffbda7"></path><path d="M103.31,394.65a11.94,11.94,0,0,1,1.18-5.09s0-.05,0-.08.07-.16.12-.25h0c1.53-3,4.35-5.86,8.48-8.24l23.7,13.66H103.31Z" style="fill:#fff;opacity:0.30000000000000004"></path><path d="M110.89,409.73a3.67,3.67,0,0,1-3.25.11,6.21,6.21,0,0,1-2-1.53,8,8,0,0,0-2.28-1.35,5.71,5.71,0,0,1-3-2.67,6.61,6.61,0,0,0-.81-1.73c-.43-.56-1.06-1-1.22-1.66s0-1.29-.41-1.91a1.27,1.27,0,0,0-.22-.25,1.48,1.48,0,0,0-.3-.23c-1.69-1.06.27-3.86,1.71-3.86h4.23l9.82,13.66Z" style="fill:#f0997a"></path><path d="M100.3,403.65a5.22,5.22,0,0,0,2.56,4.46c.53.31,1.12.52,1.64.86.9.59,1.52,1.52,2.4,2.14a4.32,4.32,0,0,0,4.84,0,3.17,3.17,0,0,0,1.17-1.49,2.09,2.09,0,0,0-.2-1.84" style="fill:#f0997a"></path><path d="M113.13,408.31c-1.52-.28-3.62-.53-4.39-1.4a5.31,5.31,0,0,0-2.93-2.29c-1.9-.63-2.72-1.64-2.5-2.95s-1-1.77-1.22-2.38.06-2-.75-2.38a5,5,0,0,0-3.45-.25,1.63,1.63,0,0,0-.22,2.08,1.48,1.48,0,0,0-.3-.23c-1.69-1.06.27-3.86,1.71-3.86h4.23Z" style="opacity:0.1"></path><path d="M113.13,408.31a25.46,25.46,0,0,1-5.42-4.08l-.06-.07-.22-.22h0a13.44,13.44,0,0,1-4.12-9.28h33.52L134.45,396l-.88.5a.41.41,0,0,1-.11.07Z" style="fill:#ffbda7"></path><path d="M113.13,408.31a25.46,25.46,0,0,1-5.42-4.08l-.06-.07-.22-.22h0a13.44,13.44,0,0,1-4.12-9.28h33.52L134.45,396l-.88.5a.41.41,0,0,1-.11.07Z" style="fill:#fff;opacity:0.30000000000000004"></path><path d="M164,410.84c0,.06,0,.11,0,.17a3.09,3.09,0,0,1-2.32,2.73,23.34,23.34,0,0,0-3,.58c-1.05.46-1.8,1.53-2.92,1.8-.88.21-1.81-.12-2.68.11a12.29,12.29,0,0,0-1.67.82c-1.91.82-4-.45-5.86.34-.63.26-1.19.69-1.83.93a6.55,6.55,0,0,1-2.42.3,17.06,17.06,0,0,1-3.57-.32A2.66,2.66,0,0,1,137,418a2.08,2.08,0,0,1-.79-1.7,3.35,3.35,0,0,1,.77-2.23c.25-.27.66-.27,1-.36l1.42-.34,6-1.44,7.13-1.7,5.83-1.39c1.51-.36,3.15-1,4.56,0A2.71,2.71,0,0,1,164,410.84Z" style="fill:#f0997a"></path><path d="M158.09,410.84c1.49-.44,1.93-1.62,2.42-2.49l-.36,0-3,.71-7.49,1.79-8,1.89-2.61.63-1,.23h0l-.21.05c-.36.09-.77.09-1,.36a3.35,3.35,0,0,0-.77,2.23A2.08,2.08,0,0,0,137,418a2.66,2.66,0,0,0,.81.31,17.06,17.06,0,0,0,3.57.32,6.55,6.55,0,0,0,2.42-.3,4.35,4.35,0,0,0,.58-.27,8.71,8.71,0,0,1-1.61.17,3.6,3.6,0,0,1-1.26-.15,2.56,2.56,0,0,1-1.45-1.4,1.38,1.38,0,0,1,.74-1.56c.75-.47,3.06-.29,4.13-.43s1.88-.83,4.13-.71,4-.34,5.12-1.44S156.59,411.28,158.09,410.84Z" style="opacity:0.1"></path><path d="M160.53,408.31a38,38,0,0,1-7.09,3.12l-.12,0c-.12,0-.25.09-.38.12h0a53.11,53.11,0,0,1-16,2.46l-.1-19.41L139.2,396l.88.5.11.07Z" style="fill:#ffbda7"></path><path d="M160.53,408.31a38,38,0,0,1-7.09,3.12l-.12,0c-.12,0-.25.09-.38.12h0a53.11,53.11,0,0,1-16,2.46l-.1-19.41L139.2,396l.88.5.11.07Z" style="fill:#fff;opacity:0.30000000000000004"></path><g style="opacity:0.1"><path d="M146.23,376.1A43.05,43.05,0,0,1,160.52,381l-23.69,13.66v-1.94c.13.45,1,0,5.42-2.54,6.1-3.52,13.93-8.25,14.51-9.06S149.63,376.77,146.23,376.1Z" style="mix-blend-mode:multiply"></path><path d="M104.65,389.23c1.53-3,4.35-5.86,8.48-8.24l23.7,13.66h-3.37c.78-.08,0-.57-4.41-3.13-6.1-3.51-14.31-8-15.71-8.36S105.81,387.26,104.65,389.23Z" style="mix-blend-mode:multiply"></path><path d="M107.43,403.93a13.44,13.44,0,0,1-4.12-9.28h33.52L134.45,396c.45-.37-.68-.41-7-.41-8.62,0-20,.15-21.37.49S105.84,402.07,107.43,403.93Z" style="mix-blend-mode:multiply"></path><path d="M152.93,411.6a53.11,53.11,0,0,1-16,2.46l-.1-19.41L139.2,396c-.64-.26-.71.39-.71,4,0,5,.27,11.51.85,12.32S149.7,412.52,152.93,411.6Z" style="mix-blend-mode:multiply"></path></g><path d="M150.12,388.07a2.53,2.53,0,0,1,1,1c.38.77.05,1.64-1,2.25a6.23,6.23,0,0,1-5.61,0,1.91,1.91,0,0,1-1.15-1.7,2,2,0,0,1,1.15-1.54A6.23,6.23,0,0,1,150.12,388.07Z" style="fill:#b16668"></path><path d="M142.42,399.79a2.39,2.39,0,0,1,1,1c.39.78,0,1.64-1,2.25a6.14,6.14,0,0,1-5.6,0,1.9,1.9,0,0,1-1.16-1.69,2,2,0,0,1,1.16-1.54A6.21,6.21,0,0,1,142.42,399.79Z" style="fill:#b16668"></path><path d="M161.1,386.24a6.15,6.15,0,0,1,1.92.27c1.23.38,2.08,1.12,2.1,2,0,1.26-1.71,2.3-3.9,2.32a5.68,5.68,0,0,1-2.92-.7,2,2,0,0,1-1.11-1.55C157.16,387.3,158.91,386.26,161.1,386.24Z" style="fill:#b16668"></path><path d="M118.42,396.93a2.39,2.39,0,0,1-1-1c-.38-.78,0-1.64,1-2.25a6.2,6.2,0,0,1,5.61,0,1.89,1.89,0,0,1,1.13,1.7A2,2,0,0,1,124,397,6.2,6.2,0,0,1,118.42,396.93Z" style="fill:#b16668"></path><path d="M117.92,384.7a2.57,2.57,0,0,1,1.06,1.14c.39.89-.06,1.87-1.31,2.53a7,7,0,0,1-6.37-.14,2.08,2.08,0,0,1-1.18-2,2.42,2.42,0,0,1,1.43-1.71A7,7,0,0,1,117.92,384.7Z" style="fill:#b16668"></path><path d="M149.16,378a6.15,6.15,0,0,1,1.92.27c1.23.37,2.08,1.12,2.1,2,0,1.26-1.72,2.3-3.91,2.32a5.67,5.67,0,0,1-2.91-.7,2,2,0,0,1-1.11-1.55C145.22,379,147,378,149.16,378Z" style="fill:#b16668"></path><path d="M147,407.1a3.07,3.07,0,0,1,1.24-.89,6.53,6.53,0,0,1,4-.26c2,.52,2.88,1.88,2,3a3.9,3.9,0,0,1-2.35,1.22,6.63,6.63,0,0,1-2.9-.08C147,409.6,146.06,408.25,147,407.1Z" style="fill:#b16668"></path><path d="M112.29,398.4a6.46,6.46,0,0,1,1.92.27c1.23.38,2.08,1.12,2.1,2,0,1.27-1.72,2.31-3.91,2.32a5.67,5.67,0,0,1-2.91-.7,2,2,0,0,1-1.11-1.55C108.35,399.46,110.1,398.42,112.29,398.4Z" style="fill:#b16668"></path><polygon points="77.1 398.66 77.1 391.63 136.84 426.12 136.84 433.15 77.1 398.66" style="fill:#A8D0E6"></polygon><polygon points="77.1 398.66 77.1 391.63 136.84 426.12 136.84 433.15 77.1 398.66" style="opacity:0.1"></polygon><polygon points="136.84 433.15 136.84 426.12 196.57 391.63 196.57 398.66 136.84 433.15" style="fill:#A8D0E6"></polygon><polygon points="77.1 391.63 136.84 357.15 113.73 301.57 54 336.06 77.1 391.63" style="fill:#A8D0E6"></polygon><polygon points="54 336.06 77.1 391.63 80.67 385.07 57.56 329.49 54 336.06" style="fill:#A8D0E6"></polygon><polygon points="54 336.06 77.1 391.63 80.67 385.07 57.56 329.49 54 336.06" style="opacity:0.1"></polygon><polygon points="113.72 301.57 136.83 357.15 140.39 350.58 117.29 295 113.72 301.57" style="fill:#A8D0E6"></polygon><polygon points="113.72 301.57 136.83 357.15 140.39 350.58 117.29 295 113.72 301.57" style="opacity:0.1"></polygon></g></g><g id="freepik--Dog--inject-1--inject-42"><g id="freepik--dog--inject-1--inject-42"><path d="M389.2,245.23c3.3-.54,7.06,2.09,7.67,3.13s-1.14,5.2-1.14,5.2Z" style="fill:#263238"></path><path d="M385.61,271.16c1.66,3,6.21,7.1,6.08,11.84s-5.62,10-5.62,10l-8.53-3.28Z" style="fill:#37474f"></path><path d="M331,300c-1.06,1.25-4.57,5.8-3.51,13.63,1,7.05,7.29,10.5,11.88,11,2,.21,1.79-1,.31-1.57-3.08-1.23-8.2-4-8.44-10.36s3.42-9.21,3.42-9.21Z" style="fill:#37474f"></path><path d="M361.37,287.61c6.76.19,8.83.57,10.42,3.1s-3.51,7-3.51,7,3.79-.85,5.58,0,1,3.46-5.58,5.35a90.93,90.93,0,0,1-12.82,2.63s-9.49-7.29-3.76-14.11S361.37,287.61,361.37,287.61Z" style="fill:#37474f"></path><path d="M347.26,286.62a21.08,21.08,0,0,1,8-11.66c9.57-6.75,21-11.81,30.51-4.68a39.65,39.65,0,0,1-.68,9.3c-1,4-2.4,6.26-5.26,8.15-1.7,1.13-8.35,2.75-10.64,3a53,53,0,0,1-6.9.23,6.31,6.31,0,0,0-3,.37,13.1,13.1,0,0,0-2.33,2,9.52,9.52,0,0,1-5.51,1.71,5.87,5.87,0,0,1-3.45-.49,3.26,3.26,0,0,1-1.52-3.14A30.89,30.89,0,0,1,347.26,286.62Z" style="fill:#f0f0f0"></path><path d="M348,289.51,346.54,291c0,.12,0,.24,0,.36a3.26,3.26,0,0,0,1.52,3.14,5.87,5.87,0,0,0,3.45.49,9.52,9.52,0,0,0,5.51-1.71,13.1,13.1,0,0,1,2.33-2,5.24,5.24,0,0,1,2.43-.39C357,287.48,348,289.51,348,289.51Z" style="fill:#e0e0e0"></path><path d="M399.13,256.93c-1.88-1.52-1.5-2-1.39-3.8.07-1-1.84-3.22-2.75-4.21-2.93-3.2-6.71-5.23-11.48-3.66s-7.8,4.83-11.06,10.59c-1.53,2.71-1.58,4-2.75,5.29-2.36,2.62-15.9,3.08-23,5.89-6.75,2.65-15.94,9.64-17.57,17.73-1.25,6.22-1.44,16.14,7.21,22.42,9.58,6.95,28,.67,30.34-.26,3.63-1.45,5.15-3.3,4.55-4.54s-2.91-1.63-5.27-1.18a43.62,43.62,0,0,0-5.87,1.77c7.12-5.34,6.63-9.7,4-11.53-4.9-3.4-14.65.56-14.65.56a13.8,13.8,0,0,1,2.07-5.49c1.18-1.78,5.38-5,8.79-3.62s4.72,4.77,9.09,9.05,14.78,6.45,17.29,6.81a12.08,12.08,0,0,1,6.21,2.76c1.49,1.31,2.57,3,4.26,3.58a2,2,0,0,0,2.22-1c2.28.58,2.36-1.36,2.36-1.36.88-1,.33-2.63-1.63-4.59-2.1-2.11-8.31-5.39-13.8-7.57s-6.76-3.35-8.91-7.4c-1.91-3.57-1.67-8.49-1.61-12,0-.48,0-.91,0-1.31a11.46,11.46,0,0,0,9.25-.8,1.38,1.38,0,0,0,.76-.72c-.07-.76.54-2.36,1.75-2a44.42,44.42,0,0,1,4.73,2h0c.28.13.55.24.79.33,3.25,1.22,5.5,0,6.18-1.42,3.38-.39,5.26-3.69,5.51-4.29C405.56,261.14,401.12,258.57,399.13,256.93Z" style="fill:#455a64"></path><path d="M376.5,272.11c4.42,1.54,7.74,1,9.28.07,0-.65,0-1.29,0-1.9a16.92,16.92,0,0,0-2.21-1.39l-3.49.15-6.39-2-4.82-5A11.63,11.63,0,0,0,376.5,272.11Z" style="opacity:0.1"></path><path d="M399.15,257a5.54,5.54,0,0,0-1.82-.78,2.2,2.2,0,0,0-2.16.72,3.93,3.93,0,0,0-.36,2.37c0,.93.31,2.18-.07,3a5,5,0,0,1-2.4,1.83c-3.29,1.28-5.93-.32-8.86-1.16-1.67-.48-3.91-1-5.45,0s-2.21,4-1.74,5.4c3.75,1.86,8.46,2.15,9.5,0a5.46,5.46,0,0,1,.16-.63c.08-.21.61-1.47,1.7-1.21a27.69,27.69,0,0,1,4.2,1.72c.32.16,1,.44,1.21.52,3.26,1.22,5.51-.1,6.19-1.48,3.38-.39,5.26-3.69,5.51-4.29C405.55,261.15,401.15,258.59,399.15,257Z" style="fill:#f0f0f0"></path><path d="M385.79,268.33c-2.64,1.59-8.11,1.27-11-1.26-2.39-2.06-3.77-4-4.31-7a2.43,2.43,0,0,0-1.59,1.69c.28,1.73.67,3.08,3.09,5.67,3.14,3.35,9.94,5.3,13.84,2.84A4.59,4.59,0,0,0,385.79,268.33Z" style="fill:#A8D0E6"></path><path d="M403.35,265a3.37,3.37,0,0,1-2.65-1.25,1.76,1.76,0,0,1,.49-2.36,6.3,6.3,0,0,1,3.05-.38,2,2,0,0,1,1.07,1.81C405.12,263.75,404.35,264.31,403.35,265Z" style="fill:#263238"></path><path d="M399.25,267.25c-1.7.23-5.64-1.22-9-3.49a12.9,12.9,0,0,0,5.35,3.59C398.56,268.28,399.25,267.25,399.25,267.25Z" style="opacity:0.1"></path><path d="M389.19,255.64a1.26,1.26,0,1,1,1.25,1.26A1.25,1.25,0,0,1,389.19,255.64Z" style="fill:#263238"></path><path d="M384.87,250.83c.89-.69,1.47-1.54.12-2.29s-3-2.11-5.74-1.61c-2,.37-5.38,3.85-6.81,6.24s-1.63,5.06,0,6.88a5.8,5.8,0,0,1,1.28,2.63c.24,1.26.28,2.39,1,3.16,2,2.27,4.55,1.15,5.7-1.3s1.66-6.89,2.38-9.63S384.34,251.25,384.87,250.83Z" style="fill:#263238"></path></g></g><g id="freepik--Window--inject-1--inject-42"><g id="freepik--window--inject-1--inject-42"><polygon points="415.11 165.55 411.32 167.74 316.5 113 320.29 110.81 415.11 165.55" style="fill:#455a64"></polygon><polygon points="320.29 110.81 411.32 163.36 411.32 88.49 320.3 35.94 320.29 110.81" style="fill:#A8D0E6"></polygon><g style="opacity:0.8"><polygon points="320.29 110.81 411.32 163.36 411.32 88.49 320.3 35.94 320.29 110.81" style="fill:#fff"></polygon></g><polygon points="363.91 58.93 363.91 138.18 360.12 136 360.12 56.74 363.91 58.93" style="fill:#37474f"></polygon><polygon points="365.81 57.83 363.91 58.93 363.91 138.18 365.81 137.09 365.81 57.83" style="fill:#263238"></polygon><polygon points="363.91 58.93 360.12 56.74 362.01 55.64 365.81 57.83 363.91 58.93" style="fill:#fafafa"></polygon><path d="M312.71,115.19l102.4,59.12v-88L312.71,27.18Zm3.79-81.44,94.82,54.74v79.25L316.5,113Z" style="fill:#37474f"></path><polygon points="316.5 113 320.29 110.81 320.3 35.94 316.5 33.75 316.5 113" style="fill:#263238"></polygon><polygon points="312.71 27.18 316.5 24.99 418.91 84.11 415.11 86.3 312.71 27.18" style="fill:#455a64"></polygon><polygon points="418.91 84.11 415.11 86.3 415.11 174.31 418.9 172.12 418.91 84.11" style="fill:#263238"></polygon><polygon points="363.91 61.12 360.13 58.93 360.13 61.12 363.91 63.31 363.91 61.12" style="fill:#263238"></polygon><polygon points="363.91 63.31 365.81 62.21 363.91 61.12 363.91 63.31"></polygon></g></g></svg>